# xmcd CD database file
#
# Track frame offsets:
#	150
#	26385
#	37448
#	57421
#	96422
#	104653
#	141132
#	166946
#	177071
#	185011
#	201813
#	213815
#	221527
#
# Disc length: 3029 seconds
#
# Revision: 0
# Processed by: cddbd v1.5PL3 Copyright (c) Steve Scherf et al.
# Submitted via: CDex 1.51
#
DISCID=c20bd30d
DTITLE=The Devil is an Idiot - Cybajaz
DYEAR=2001
DGENRE=Jazz
TTITLE0=cybajaz
TTITLE1=omega point
TTITLE2=the devil is an idiot
TTITLE3=rough ride
TTITLE4=city hermit
TTITLE5=2110 transitional time line
TTITLE6=ph7
TTITLE7=C6H6O6
TTITLE8=problem - reaction - solution
TTITLE9=subatomic transformation agency part 1
TTITLE10=subatomic transformation agency part 2
TTITLE11=subatomic transformation agency part 3
TTITLE12=time is money
EXTD=YEAR: 2001
EXTT0=
EXTT1=
EXTT2=
EXTT3=
EXTT4=
EXTT5=
EXTT6=
EXTT7=
EXTT8=
EXTT9=
EXTT10=
EXTT11=
EXTT12=
PLAYORDER=
